<svg xmlns="http://www.w3.org/2000/svg" width="1600" height="900" viewBox="0 0 1600 900" role="img" aria-labelledby="title desc">
  <title id="title">EtsyPulse cover image</title>
  <desc id="desc">A bold market intelligence command center for Etsy sellers, showing agent signals becoming actionable briefs.</desc>
  <defs>
    <linearGradient id="bg" x1="0" y1="0" x2="1" y2="1">
      <stop offset="0" stop-color="#f7efe4"/>
      <stop offset="0.46" stop-color="#f2d7a8"/>
      <stop offset="1" stop-color="#12312c"/>
    </linearGradient>
    <linearGradient id="panel" x1="0" y1="0" x2="1" y2="1">
      <stop offset="0" stop-color="#fff8ec"/>
      <stop offset="1" stop-color="#f0c778"/>
    </linearGradient>
    <linearGradient id="ink" x1="0" y1="0" x2="1" y2="1">
      <stop offset="0" stop-color="#0c2e2b"/>
      <stop offset="1" stop-color="#1b534b"/>
    </linearGradient>
    <filter id="shadow" x="-20%" y="-20%" width="140%" height="140%">
      <feDropShadow dx="0" dy="24" stdDeviation="28" flood-color="#0d261f" flood-opacity="0.28"/>
    </filter>
  </defs>
  <rect width="1600" height="900" fill="#f2d7a8"/>
  <path d="M96 690 C300 606 438 760 640 672 C768 616 826 648 910 704" fill="none" stroke="#fff8ec" stroke-width="2" opacity="0.22"/>
  <path d="M88 732 C322 646 448 812 664 714 C786 658 842 700 942 748" fill="none" stroke="#12312c" stroke-width="2" opacity="0.12"/>
  <circle cx="1320" cy="142" r="270" fill="#ff884d" opacity="0.16"/>
  <circle cx="110" cy="840" r="360" fill="#fff7df" opacity="0.25"/>

  <g transform="translate(104 118)">
    <text x="0" y="0" font-family="Georgia, 'Times New Roman', serif" font-size="34" font-weight="700" fill="#12312c" letter-spacing="5">ETSYPULSE</text>
    <text x="0" y="86" font-family="Georgia, 'Times New Roman', serif" font-size="94" line-height="1" font-weight="700" fill="#102b27">Market signals,</text>
    <text x="0" y="184" font-family="Georgia, 'Times New Roman', serif" font-size="94" line-height="1" font-weight="700" fill="#102b27">not market noise.</text>
    <text x="4" y="252" font-family="Verdana, sans-serif" font-size="28" fill="#285048">Autonomous agents monitor Etsy, SERP, competitors, and social trends.</text>
    <text x="4" y="294" font-family="Verdana, sans-serif" font-size="28" fill="#285048">A Judge Agent only delivers briefs sellers can act on now.</text>
  </g>

  <g transform="translate(920 146)" filter="url(#shadow)">
    <rect x="0" y="0" width="536" height="608" rx="36" fill="#12312c"/>
    <rect x="34" y="36" width="468" height="88" rx="24" fill="#1f4b43"/>
    <circle cx="76" cy="80" r="16" fill="#f5b454"/>
    <circle cx="124" cy="80" r="16" fill="#8fd4b0"/>
    <circle cx="172" cy="80" r="16" fill="#e46f46"/>
    <text x="222" y="90" font-family="Verdana, sans-serif" font-size="22" fill="#fff6df">Agent activity live</text>

    <g transform="translate(44 164)">
      <rect x="0" y="0" width="448" height="80" rx="22" fill="#fff6df"/>
      <text x="26" y="34" font-family="Verdana, sans-serif" font-size="18" font-weight="700" fill="#12312c">Bright Data</text>
      <text x="26" y="61" font-family="Verdana, sans-serif" font-size="16" fill="#3f5b4d">scrape_as_markdown · web_data_etsy_products</text>
    </g>
    <g transform="translate(44 264)">
      <rect x="0" y="0" width="448" height="80" rx="22" fill="#244f47"/>
      <text x="26" y="34" font-family="Verdana, sans-serif" font-size="18" font-weight="700" fill="#fff6df">Market Pulse</text>
      <text x="26" y="61" font-family="Verdana, sans-serif" font-size="16" fill="#cbe6d5">Keywords + competitors + social trends</text>
    </g>
    <g transform="translate(44 364)">
      <rect x="0" y="0" width="448" height="154" rx="28" fill="#fff6df"/>
      <text x="28" y="42" font-family="Georgia, 'Times New Roman', serif" font-size="30" font-weight="700" fill="#12312c">Approved brief</text>
      <text x="28" y="82" font-family="Verdana, sans-serif" font-size="17" fill="#35544b">Test a gift-ready linen bundle this week.</text>
      <rect x="28" y="108" width="142" height="30" rx="15" fill="#12312c"/>
      <text x="48" y="130" font-family="Verdana, sans-serif" font-size="15" fill="#fff6df">Judge 82%</text>
      <rect x="188" y="108" width="182" height="30" rx="15" fill="#f0c778"/>
      <text x="210" y="130" font-family="Verdana, sans-serif" font-size="15" fill="#12312c">actionable now</text>
    </g>
  </g>

  <g transform="translate(106 520)">
    <path d="M0,90 C150,28 230,148 352,86 C460,30 536,34 640,80" fill="none" stroke="#12312c" stroke-width="7" stroke-linecap="round" opacity="0.92"/>
    <circle cx="0" cy="90" r="14" fill="#12312c"/>
    <circle cx="352" cy="86" r="14" fill="#12312c"/>
    <circle cx="640" cy="80" r="14" fill="#12312c"/>
    <text x="0" y="156" font-family="Verdana, sans-serif" font-size="18" fill="#12312c">shop URL</text>
    <text x="280" y="156" font-family="Verdana, sans-serif" font-size="18" fill="#12312c">agent monitoring</text>
    <text x="570" y="156" font-family="Verdana, sans-serif" font-size="18" fill="#12312c">seller brief</text>
  </g>
</svg>
